<svg xmlns="http://www.w3.org/2000/svg" version="1.1" xmlns:xlink="http://www.w3.org/1999/xlink" width="512" height="512" x="0" y="0" viewBox="0 0 512 512" style="enable-background:new 0 0 512 512" xml:space="preserve" class=""><g><path fill="#b29adc" d="M512 256c0 141.387-114.613 256-256 256S0 397.387 0 256 114.613 0 256 0s256 114.613 256 256zm0 0" opacity="1" data-original="#0069a3" class=""></path><path fill="#9d9d9d" d="M185.473 405.531h141.054v62.692H185.473zm0 0" opacity="1" data-original="#87a8e6" class=""></path><path fill="#e0e0e0" d="M485.61 90.938v278.39a255.98 255.98 0 0 1-35.696 53.8 40.81 40.81 0 0 1-4.96.306h-377.9c-1.683 0-3.331-.106-4.964-.305a255.258 255.258 0 0 1-35.692-53.8V90.936c0-22.457 18.2-40.656 40.657-40.656h377.898c22.453 0 40.656 18.2 40.656 40.657zm0 0" opacity="1" data-original="#d4e4ff" class=""></path><path fill="#7e57c2" d="M464.71 90.938v255.265c0 10.899-8.87 19.762-19.757 19.762H67.055c-10.899 0-19.758-8.863-19.758-19.762V90.938c0-10.899 8.86-19.762 19.758-19.762h377.898c10.887 0 19.758 8.863 19.758 19.761zm0 0" opacity="1" data-original="#244477" class=""></path><path fill="#e0e0e0" d="M372.988 481.824c0 .668-.02 1.324-.07 1.985C337.871 501.832 298.121 512 256.004 512c-42.133 0-81.879-10.18-116.926-28.203-.05-.656-.07-1.317-.07-1.973 0-8.328 3.375-15.875 8.84-21.34s13.007-8.84 21.336-8.84h173.628c16.668 0 30.176 13.512 30.176 30.18zm0 0" opacity="1" data-original="#d4e4ff" class=""></path><path fill="#ffffff" d="M163.633 213.637h-77.34c-5.961 0-10.797-4.836-10.797-10.797 0-5.965 4.836-10.797 10.797-10.797h77.34c5.965 0 10.797 4.832 10.797 10.797 0 5.96-4.832 10.797-10.797 10.797zm0 0" opacity="1" data-original="#ffffff" class=""></path><path fill="#b29adc" d="M163.633 255.938h-77.34c-5.961 0-10.797-4.836-10.797-10.797 0-5.965 4.836-10.797 10.797-10.797h77.34c5.965 0 10.797 4.832 10.797 10.797 0 5.96-4.832 10.797-10.797 10.797zm0 0" opacity="1" data-original="#0069a3" class=""></path><path fill="#fcd971" d="M163.633 298.238h-77.34c-5.961 0-10.797-4.836-10.797-10.797 0-5.964 4.836-10.796 10.797-10.796h77.34c5.965 0 10.797 4.832 10.797 10.796 0 5.961-4.832 10.797-10.797 10.797zm0 0" opacity="1" data-original="#fcd971"></path><path fill="#b29adc" d="M163.633 340.54h-77.34c-5.961 0-10.797-4.837-10.797-10.798 0-5.965 4.836-10.797 10.797-10.797h77.34c5.965 0 10.797 4.832 10.797 10.797 0 5.961-4.832 10.797-10.797 10.797zm0 0" opacity="1" data-original="#0069a3" class=""></path><path fill="#228bd1" d="M425.973 213.637H227.78c-5.96 0-10.797-4.836-10.797-10.797 0-5.965 4.836-10.797 10.797-10.797h198.192c5.964 0 10.797 4.832 10.797 10.797 0 5.96-4.833 10.797-10.797 10.797zm0 0" opacity="1" data-original="#228bd1" class=""></path><path fill="#ff4079" d="M425.973 255.938H227.78c-5.96 0-10.797-4.836-10.797-10.797 0-5.965 4.836-10.797 10.797-10.797h198.192c5.964 0 10.797 4.832 10.797 10.797 0 5.96-4.833 10.797-10.797 10.797zm0 0" opacity="1" data-original="#ff4079" class=""></path><path fill="#ffffff" d="M425.973 298.238H227.78c-5.96 0-10.797-4.836-10.797-10.797 0-5.964 4.836-10.796 10.797-10.796h198.192c5.964 0 10.797 4.832 10.797 10.796 0 5.961-4.833 10.797-10.797 10.797zm0 0" opacity="1" data-original="#ffffff" class=""></path><path fill="#fcd971" d="M425.973 340.54H227.78c-5.96 0-10.797-4.837-10.797-10.798 0-5.965 4.836-10.797 10.797-10.797h198.192c5.964 0 10.797 4.832 10.797 10.797 0 5.961-4.833 10.797-10.797 10.797zm0 0" opacity="1" data-original="#fcd971"></path><g fill="#fff"><path d="m181.309 136.527 30.34-19.707c.597-.48 1.433-.597 2.269-.597 3.586 0 8.125 3.82 8.125 8.718 0 2.032-.836 3.825-2.152 4.66l-21.024 13.618 21.024 13.617c1.316.836 2.152 2.629 2.152 4.66 0 4.899-4.54 8.723-8.125 8.723-.836 0-1.672-.121-2.27-.598l-30.34-19.71c-2.75-1.794-3.703-4.661-3.703-6.692s.954-4.899 3.704-6.692zM282.96 90.418c0 .719-.116 1.555-.476 2.27l-42.046 86.128c-.836 1.793-3.106 2.985-5.38 2.985-4.058 0-6.687-3.344-6.687-6.328 0-.72.238-1.555.598-2.27l41.93-86.129c.956-2.031 2.867-2.988 5.015-2.988 3.344 0 7.047 2.512 7.047 6.332zM330.027 149.906l-30.343 19.711c-.598.48-1.434.598-2.27.598-3.582 0-8.121-3.82-8.121-8.719 0-2.031.836-3.824 2.148-4.66l21.028-13.617-21.028-13.617c-1.312-.836-2.148-2.63-2.148-4.66 0-4.899 4.539-8.723 8.121-8.723.836 0 1.672.12 2.27.597l30.343 19.711c2.746 1.793 3.703 4.66 3.703 6.692 0 2.027-.957 4.898-3.703 6.687zm0 0" fill="#ffffff" opacity="1" data-original="#ffffff" class=""></path></g></g></svg>